<?xml version="1.0" encoding="utf-8"?>
<!-- Generator: Adobe Illustrator 16.0.0, SVG Export Plug-In . SVG Version: 6.00 Build 0)  -->
<!DOCTYPE svg PUBLIC "-//W3C//DTD SVG 1.1//EN" "http://www.w3.org/Graphics/SVG/1.1/DTD/svg11.dtd">
<svg version="1.1" id="Layer_1" xmlns="http://www.w3.org/2000/svg" xmlns:xlink="http://www.w3.org/1999/xlink" x="0px" y="0px"
	 width="385.5117188px" height="79.3696289px" viewBox="9.9211426 2.8349609 385.5117188 79.3696289"
	 enable-background="new 9.9211426 2.8349609 385.5117188 79.3696289" xml:space="preserve">
<g enable-background="new    ">
	<path fill="#273474" d="M32.6652832,60.2641602v2.0244141c0,1.9638672,0.3984375,3.28125,1.1962891,3.9560547
		c0.7963867,0.6757813,2.237793,1.0117188,4.3237305,1.0117188h16.4682617v12.328125H38.1853027
		c-8.0356445,0-13.7856445-1.5019531-17.25-4.5078125c-3.4658203-3.0048828-5.1977539-7.8203125-5.1977539-14.4443359v-11.5
		c0-3.6181641,0.3676758-6.6699219,1.1040039-9.1542969c0.7358398-2.4833984,1.9780273-4.4755859,3.7255859-5.9794922
		c1.7480469-1.5019531,4.1083984-2.5908203,7.0844727-3.265625c2.9741211-0.6748047,6.699707-1.0126953,11.1777344-1.0126953
		h24.2880859c3.6801758,0,6.7304688,0.3222656,9.1538086,0.9658203c2.4223633,0.6445313,4.3383789,1.5644531,5.75,2.7607422
		c1.4101563,1.1953125,2.4067383,2.6074219,2.9902344,4.2314453c0.5820313,1.6259766,0.8740234,3.4501953,0.8740234,5.4746094
		v17.1113281H32.6652832z M64.9572754,45.3608398c0-1.2265625-0.3076172-2.0703125-0.9199219-2.5302734
		c-0.6137695-0.4599609-1.6259766-0.6904297-3.0361328-0.6904297H39.1975098c-2.3920898,0-4.0795898,0.3681641-5.0600586,1.1044922
		c-0.9819336,0.7363281-1.472168,2.2998047-1.472168,4.6914063v2.1162109h32.2919922V45.3608398z"/>
	<path fill="#273474" d="M159.9006348,79.5844727V51.0649414c0-2.5761719-0.5375977-4.3701172-1.6098633-5.3828125
		c-1.0737305-1.0117188-2.8056641-1.5175781-5.1977539-1.5175781h-7.5439453c-3.128418,0-5.2597656,0.5058594-6.394043,1.5175781
		c-1.1357422,1.0126953-1.7021484,2.8066406-1.7021484,5.3828125v28.5195313h-14.8120117V51.0649414
		c0-2.5761719-0.5517578-4.3701172-1.6557617-5.3828125c-1.1040039-1.0117188-3.2519531-1.5175781-6.4404297-1.5175781h-7.4516602
		c-2.515625,0-4.2783203,0.5058594-5.2900391,1.5175781c-1.012207,1.0126953-1.5180664,2.8066406-1.5180664,5.3828125v28.5195313
		H83.8166504V46.9243164c0-5.7646484,1.3183594-10.0742188,3.9560547-12.9257813
		c2.6367188-2.8525391,7.0527344-4.2783203,13.2480469-4.2783203h14.0761719c2.2685547,0,4.2319336,0.1542969,5.8881836,0.4599609
		c1.6557617,0.3076172,3.065918,0.7675781,4.2319336,1.3798828c1.1640625,0.6142578,2.1303711,1.3964844,2.8979492,2.3466797
		c0.7661133,0.9511719,1.394043,2.0390625,1.8857422,3.265625c0.9804688-2.5136719,2.5761719-4.3837891,4.7841797-5.6123047
		c2.2080078-1.2255859,5.550293-1.8398438,10.027832-1.8398438h14.5361328c6.1943359,0,10.5942383,1.4257813,13.2021484,4.2783203
		c2.605957,2.8515625,3.909668,7.1611328,3.909668,12.9257813v32.6601563H159.9006348z"/>
	<path fill="#273474" d="M185.107666,26.9604492c-2.1474609,0-3.6499023-0.3525391-4.5078125-1.0576172
		c-0.8598633-0.7050781-1.2880859-1.9462891-1.2880859-3.7265625v-4.5996094c0-1.7167969,0.4282227-2.9121094,1.2880859-3.5878906
		c0.8579102-0.6748047,2.3603516-1.0126953,4.5078125-1.0126953h5.7041016c2.2080078,0,3.7260742,0.3378906,4.5537109,1.0126953
		c0.828125,0.6757813,1.2421875,1.8710938,1.2421875,3.5878906v4.5996094c0,1.7802734-0.4140625,3.0214844-1.2421875,3.7265625
		c-0.8276367,0.7050781-2.3457031,1.0576172-4.5537109,1.0576172H185.107666z M179.3117676,79.5844727V30.824707h17.2958984
		v48.7597656H179.3117676z"/>
	<path fill="#273474" d="M240.0305176,79.5844727l-23.1835938-23.2763672v23.2763672h-17.1123047V13.6206055h17.1123047v38.9160156
		l23.2753906-22.8164063h21.4355469l-25.8515625,24.0126953l26.3125,25.8515625H240.0305176z"/>
	<path fill="#273474" d="M281.4299316,79.5844727c-4.7236328,0-8.6474609-0.3828125-11.7763672-1.1503906
		c-3.1279297-0.765625-5.6269531-1.9921875-7.4980469-3.6796875c-1.8710938-1.6865234-3.1894531-3.8945313-3.9550781-6.6240234
		c-0.7675781-2.7285156-1.1503906-6.0859375-1.1503906-10.0742188V51.340332c0-3.9863281,0.3828125-7.359375,1.1503906-10.1201172
		c0.765625-2.7597656,2.0839844-4.9824219,3.9550781-6.6699219c1.8710938-1.6855469,4.3701172-2.9121094,7.4980469-3.6796875
		c3.1289063-0.7666016,7.0527344-1.1503906,11.7763672-1.1503906h16.9277344c4.7216797,0,8.6630859,0.3837891,11.8222656,1.1503906
		c3.1582031,0.7675781,5.671875,1.9941406,7.5439453,3.6796875c1.8701172,1.6875,3.1884766,3.9101563,3.9560547,6.6699219
		c0.7666016,2.7607422,1.1503906,6.1337891,1.1503906,10.1201172v6.7158203c0,3.9882813-0.3837891,7.3457031-1.1503906,10.0742188
		c-0.7675781,2.7294922-2.0859375,4.9375-3.9560547,6.6240234c-1.8720703,1.6875-4.3857422,2.9140625-7.5439453,3.6796875
		c-3.1591797,0.7675781-7.1005859,1.1503906-11.8222656,1.1503906H281.4299316z M305.9016113,52.1342773
		c0-1.5869141-0.1376953-2.9013672-0.4140625-3.9394531c-0.2753906-1.0371094-0.7675781-1.8466797-1.4716797-2.4277344
		c-0.7060547-0.5791016-1.6416016-0.9912109-2.8056641-1.2363281c-1.1660156-0.2441406-2.6386719-0.3662109-4.4160156-0.3662109
		h-13.8007813c-1.7792969,0-3.2509766,0.1220703-4.4160156,0.3662109c-1.1660156,0.2451172-2.0859375,0.6572266-2.7597656,1.2363281
		c-0.6757813,0.5810547-1.1503906,1.390625-1.4257813,2.4277344c-0.2753906,1.0380859-0.4140625,2.3525391-0.4140625,3.9394531
		v5.1289063c0,1.5263672,0.1386719,2.7939453,0.4140625,3.8017578s0.75,1.8173828,1.4257813,2.4267578
		c0.6738281,0.6113281,1.59375,1.0380859,2.7597656,1.2822266c1.1650391,0.2441406,2.6367188,0.3662109,4.4160156,0.3662109
		h13.8007813c1.7773438,0,3.25-0.1220703,4.4160156-0.3662109c1.1640625-0.2441406,2.0996094-0.6708984,2.8056641-1.2822266
		c0.7041016-0.609375,1.1962891-1.4189453,1.4716797-2.4267578c0.2763672-1.0078125,0.4140625-2.2753906,0.4140625-3.8017578
		V52.1342773z"/>
	<path fill="#273474" d="M374.0725098,79.5844727V52.168457c0-3.1279297-0.5986328-5.2441406-1.7939453-6.3476563
		c-1.1962891-1.1044922-3.4501953-1.65625-6.7626953-1.65625h-14.8115234c-3.2519531,0-5.4902344,0.5517578-6.7158203,1.65625
		c-1.2275391,1.1035156-1.8398438,3.2197266-1.8398438,6.3476563v27.4160156h-16.9287109V51.340332
		c0-3.9863281,0.3828125-7.359375,1.1503906-10.1201172c0.765625-2.7597656,2.0839844-4.9824219,3.9560547-6.6699219
		c1.8701172-1.6855469,4.3701172-2.9121094,7.4980469-3.6796875c3.1279297-0.7666016,7.0517578-1.1503906,11.7753906-1.1503906
		h16.9287109c4.7216797,0,8.6621094,0.3837891,11.8212891,1.1503906c3.1582031,0.7675781,5.6728516,1.9941406,7.5439453,3.6796875
		c1.8701172,1.6875,3.1884766,3.9101563,3.9560547,6.6699219c0.7666016,2.7607422,1.1503906,6.1337891,1.1503906,10.1201172
		v28.2441406H374.0725098z"/>
</g>
</svg>
